<svg class="svg-icon" style="width: 1em; height: 1em;vertical-align: middle;fill: currentColor;overflow: hidden;" viewBox="0 0 1024 1024" version="1.1" xmlns="http://www.w3.org/2000/svg"><path d="M96.4 503.7c-17.7 0-32-14.3-32-32v-100c0-23.1 11.3-45.3 31-60.9 17.8-14.1 40.9-21.8 65.1-21.8H382c24.2 0 47.4 7.7 65.1 21.8 19.7 15.6 31 37.8 31 60.9V421c0 17.7-14.3 32-32 32s-32-14.3-32-32v-49.3c0-7.6-12.5-18.7-32.1-18.7H160.5c-19.6 0-32.1 11.1-32.1 18.7v100c0 17.7-14.3 32-32 32z"  /><path d="M863.9 960H382c-17.7 0-32-14.3-32-32s14.3-32 32-32h481.9c19.6 0 32.1-11.1 32.1-18.7V471.7c0-7.6-12.5-18.7-32.1-18.7H446.1c-17.7 0-32-14.3-32-32s14.3-32 32-32h417.8c24.2 0 47.4 7.7 65.1 21.8 19.7 15.6 31 37.8 31 60.9v405.5c0 23.1-11.3 45.3-31 60.9-17.8 14.1-40.9 21.9-65.1 21.9z"  /><path d="M382 960H160.5c-24.2 0-47.4-7.7-65.1-21.8-19.7-15.6-31-37.8-31-60.9V471.7c0-17.7 14.3-32 32-32s32 14.3 32 32v405.5c0 7.6 12.5 18.7 32.1 18.7H382c17.7 0 32 14.3 32 32S399.6 960 382 960z"  /><path d="M255.8 588.6h49c30.4 0 53.6 8.8 53.6 36.4 0 13.6-7.6 27.6-20.2 32v1c16 3.8 27.8 15 27.8 35 0 29.8-24.8 43.6-57.4 43.6h-52.8v-148z m46.8 60.2c18.8 0 27-7.6 27-19.4 0-13-8.8-18.2-26.6-18.2h-17.6v37.6h17.2z m3.4 65c20.2 0 31.2-7.2 31.2-22.6 0-14.4-10.8-20.4-31.2-20.4h-20.6v43H306zM428.6 662c0-48.2 27-76.2 66.2-76.2S561 614 561 662s-27 77.4-66.2 77.4-66.2-29.4-66.2-77.4z m102.2 0c0-31.8-14-50.8-36-50.8s-36 19-36 50.8c0 31.6 14 51.8 36 51.8s36-20.2 36-51.8zM634 588.6h32.8l25.2 69.2c3.2 9.2 6 19 9 28.6h1c3.2-9.6 5.8-19.4 9-28.6l24.6-69.2h32.8v148h-27v-61.8c0-14 2.2-34.6 3.6-48.6h-0.8l-12 34.8-22.8 62.2h-17l-23-62.2-11.8-34.8h-0.8c1.4 14 3.8 34.6 3.8 48.6v61.8H634v-148zM801.1 429.2h-64V224.8H191.9v94.4h-64V204.8c0-24.3 19.7-44 44-44h585.2c24.3 0 44 19.7 44 44v224.4z"  /><path d="M896.5 422.7h-64V128.1H289v74.4h-64v-94.4c0-24.3 19.7-44 44-44h583.5c24.3 0 44 19.7 44 44v314.6z"  /></svg>