<?xml version="1.0" encoding="UTF-8" standalone="no"?>
<!DOCTYPE svg PUBLIC "-//W3C//DTD SVG 1.1//EN" "http://www.w3.org/Graphics/SVG/1.1/DTD/svg11.dtd">
<svg width="100%" height="100%" viewBox="0 0 12 12" version="1.1" xmlns="http://www.w3.org/2000/svg" xmlns:xlink="http://www.w3.org/1999/xlink" xml:space="preserve" xmlns:serif="http://www.serif.com/" style="fill-rule:evenodd;clip-rule:evenodd;stroke-linejoin:round;stroke-miterlimit:2;">
    <path d="M3.855,1.98L2.625,3.211L2.145,2.73L1.605,3.27L2.355,4.02L2.625,4.278L2.894,4.02L4.394,2.52L3.855,1.98ZM5.625,2.625L5.625,3.375L10.5,3.375L10.5,2.625L5.625,2.625ZM3.855,4.98L2.625,6.211L2.145,5.731L1.605,6.27L2.355,7.02L2.625,7.277L2.895,7.02L4.395,5.52L3.855,4.98ZM5.625,5.625L5.625,6.375L10.5,6.375L10.5,5.625L5.625,5.625ZM3.855,7.98L2.625,9.211L2.145,8.73L1.605,9.27L2.355,10.02L2.625,10.278L2.894,10.02L4.394,8.52L3.855,7.98ZM5.625,8.625L5.625,9.375L10.5,9.375L10.5,8.625L5.625,8.625Z" style="fill:rgb(13,110,253);fill-rule:nonzero;"/>
</svg>
